<?xml version="1.0" encoding="UTF-8" standalone="no"?>
<!DOCTYPE svg PUBLIC "-//W3C//DTD SVG 1.1//EN"
 "http://www.w3.org/Graphics/SVG/1.1/DTD/svg11.dtd">
<!-- Generated by graphviz version 5.0.0 (20220707.1540)
 -->
<!-- Pages: 1 -->
<svg width="886pt" height="231pt"
 viewBox="0.00 0.00 885.72 231.00" xmlns="http://www.w3.org/2000/svg" xmlns:xlink="http://www.w3.org/1999/xlink">
<g id="graph0" class="graph" transform="scale(1 1) rotate(0) translate(4 227)">
<polygon fill="#3f3f3f" stroke="transparent" points="-4,4 -4,-227 881.72,-227 881.72,4 -4,4"/>
<text text-anchor="middle" x="438.86" y="-9.2" font-family="Times New Roman,serif" font-size="16.00" fill="white">Network Map</text>
<!-- R2 -->
<g id="node1" class="node">
<title>R2</title>
<polygon fill="#006699" stroke="#006699" points="226.22,-99 149.22,-99 149.22,-26 226.22,-26 226.22,-99"/>
<text text-anchor="middle" x="187.72" y="-58.8" font-family="Helvetica,sans-Serif" font-size="14.00" fill="white">R2</text>
</g>
<!-- R6 -->
<g id="node3" class="node">
<title>R6</title>
<polygon fill="#006699" stroke="#006699" points="103.22,-223 26.22,-223 26.22,-150 103.22,-150 103.22,-223"/>
<text text-anchor="middle" x="64.72" y="-182.8" font-family="Helvetica,sans-Serif" font-size="14.00" fill="white">R6</text>
</g>
<!-- R2&#45;&#45;R6 -->
<g id="edge4" class="edge">
<title>R2&#45;&#45;R6</title>
<path fill="none" stroke="green" stroke-dasharray="5,2" d="M148.97,-69.26C120.69,-75.7 84.2,-89.16 65.72,-117 59.4,-126.51 57.68,-138.52 58,-149.82"/>
<text text-anchor="middle" x="115.72" y="-120.8" font-family="Courier,monospace" font-size="14.00" fill="white"> &#160;&#160;&#160;&#160;&#160;&#160;&#160;&#160;&#160;&#160;&#160;</text>
<text text-anchor="middle" x="29" y="-138.62" font-family="Courier,monospace" font-size="14.00" fill="white">Eth 0/1</text>
<text text-anchor="middle" x="119.97" y="-58.06" font-family="Courier,monospace" font-size="14.00" fill="white">Eth 0/2</text>
</g>
<!-- SW1 -->
<g id="node6" class="node">
<title>SW1</title>
<polygon fill="#006699" stroke="#006699" points="602.22,-223 511.22,-223 511.22,-150 602.22,-150 602.22,-223"/>
<text text-anchor="middle" x="556.72" y="-182.8" font-family="Helvetica,sans-Serif" font-size="14.00" fill="white">SW1</text>
</g>
<!-- R2&#45;&#45;SW1 -->
<g id="edge2" class="edge">
<title>R2&#45;&#45;SW1</title>
<path fill="none" stroke="green" stroke-dasharray="5,2" d="M226.36,-84.43C259.63,-102.14 305.25,-125.64 324.72,-132 370.14,-146.85 384.1,-139.51 430.72,-150 457.54,-156.04 487.16,-164.3 510.94,-171.33"/>
<text text-anchor="middle" x="374.72" y="-120.8" font-family="Courier,monospace" font-size="14.00" fill="white"> &#160;&#160;&#160;&#160;&#160;&#160;&#160;&#160;&#160;&#160;&#160;</text>
<text text-anchor="middle" x="481.94" y="-160.13" font-family="Courier,monospace" font-size="14.00" fill="white">Eth 0/2</text>
<text text-anchor="middle" x="255.36" y="-73.23" font-family="Courier,monospace" font-size="14.00" fill="white">Eth 0/0</text>
</g>
<!-- R5 -->
<g id="node7" class="node">
<title>R5</title>
<polygon fill="#006699" stroke="#006699" points="421.22,-223 344.22,-223 344.22,-150 421.22,-150 421.22,-223"/>
<text text-anchor="middle" x="382.72" y="-182.8" font-family="Helvetica,sans-Serif" font-size="14.00" fill="white">R5</text>
</g>
<!-- R2&#45;&#45;R5 -->
<g id="edge3" class="edge">
<title>R2&#45;&#45;R5</title>
<path fill="none" stroke="green" stroke-dasharray="5,2" d="M180.24,-99.03C179.77,-110.58 181.59,-122.78 188.72,-132 207.63,-156.46 293.13,-172.67 344.1,-180.35"/>
<text text-anchor="middle" x="238.72" y="-120.8" font-family="Courier,monospace" font-size="14.00" fill="white"> &#160;&#160;&#160;&#160;&#160;&#160;&#160;&#160;&#160;&#160;&#160;</text>
<text text-anchor="middle" x="315.1" y="-169.15" font-family="Courier,monospace" font-size="14.00" fill="white">Eth 0/0</text>
<text text-anchor="middle" x="151.24" y="-102.83" font-family="Courier,monospace" font-size="14.00" fill="white">Eth 0/1</text>
</g>
<!-- R1 -->
<g id="node2" class="node">
<title>R1</title>
<polygon fill="#006699" stroke="#006699" points="841.22,-99 764.22,-99 764.22,-26 841.22,-26 841.22,-99"/>
<text text-anchor="middle" x="802.72" y="-58.8" font-family="Helvetica,sans-Serif" font-size="14.00" fill="white">R1</text>
</g>
<!-- R1&#45;&#45;SW1 -->
<g id="edge1" class="edge">
<title>R1&#45;&#45;SW1</title>
<path fill="none" stroke="green" stroke-dasharray="5,2" d="M789.75,-99.19C783.79,-111.17 775.58,-123.6 764.72,-132 717.52,-168.48 648.07,-180.26 602.62,-183.96"/>
<text text-anchor="middle" x="827.72" y="-120.8" font-family="Courier,monospace" font-size="14.00" fill="white"> &#160;&#160;&#160;&#160;&#160;&#160;&#160;&#160;&#160;&#160;&#160;</text>
<text text-anchor="middle" x="631.62" y="-172.76" font-family="Courier,monospace" font-size="14.00" fill="white">Eth 0/1</text>
<text text-anchor="middle" x="760.75" y="-102.99" font-family="Courier,monospace" font-size="14.00" fill="white">Eth 0/0</text>
</g>
<!-- R4 -->
<g id="node4" class="node">
<title>R4</title>
<polygon fill="#006699" stroke="#006699" points="657.22,-99 580.22,-99 580.22,-26 657.22,-26 657.22,-99"/>
<text text-anchor="middle" x="618.72" y="-58.8" font-family="Helvetica,sans-Serif" font-size="14.00" fill="white">R4</text>
</g>
<!-- R4&#45;&#45;SW1 -->
<g id="edge6" class="edge">
<title>R4&#45;&#45;SW1</title>
<path fill="none" stroke="green" stroke-dasharray="5,2" d="M654.66,-99.24C661.13,-109.85 664.07,-121.45 657.72,-132 645.59,-152.15 623.05,-165.1 602.33,-173.21"/>
<text text-anchor="middle" x="710.72" y="-120.8" font-family="Courier,monospace" font-size="14.00" fill="white"> &#160;&#160;&#160;&#160;&#160;&#160;&#160;&#160;&#160;&#160;&#160;</text>
<text text-anchor="middle" x="631.33" y="-162.01" font-family="Courier,monospace" font-size="14.00" fill="white">Eth 0/4</text>
<text text-anchor="middle" x="625.66" y="-103.04" font-family="Courier,monospace" font-size="14.00" fill="white">Eth 0/0</text>
</g>
<!-- R4&#45;&#45;R5 -->
<g id="edge7" class="edge">
<title>R4&#45;&#45;R5</title>
<path fill="none" stroke="green" stroke-dasharray="5,2" d="M580.12,-95.21C558.7,-112.78 536.08,-131.23 534.72,-132 498.49,-152.33 453.14,-167.07 421.45,-175.87"/>
<text text-anchor="middle" x="601.72" y="-120.8" font-family="Courier,monospace" font-size="14.00" fill="white"> &#160;&#160;&#160;&#160;&#160;&#160;&#160;&#160;&#160;&#160;&#160;</text>
<text text-anchor="middle" x="450.45" y="-179.67" font-family="Courier,monospace" font-size="14.00" fill="white">Eth 0/1</text>
<text text-anchor="middle" x="551.12" y="-84.01" font-family="Courier,monospace" font-size="14.00" fill="white">Eth 0/1</text>
</g>
<!-- R3 -->
<g id="node5" class="node">
<title>R3</title>
<polygon fill="#006699" stroke="#006699" points="472.22,-99 395.22,-99 395.22,-26 472.22,-26 472.22,-99"/>
<text text-anchor="middle" x="433.72" y="-58.8" font-family="Helvetica,sans-Serif" font-size="14.00" fill="white">R3</text>
</g>
<!-- R3&#45;&#45;SW1 -->
<g id="edge5" class="edge">
<title>R3&#45;&#45;SW1</title>
<path fill="none" stroke="green" stroke-dasharray="5,2" d="M427,-99.18C426.68,-110.48 428.4,-122.49 434.72,-132 451.73,-157.63 483.99,-171.07 511.07,-178.06"/>
<text text-anchor="middle" x="484.72" y="-120.8" font-family="Courier,monospace" font-size="14.00" fill="white"> &#160;&#160;&#160;&#160;&#160;&#160;&#160;&#160;&#160;&#160;&#160;</text>
<text text-anchor="middle" x="482.07" y="-181.86" font-family="Courier,monospace" font-size="14.00" fill="white">Eth 0/3</text>
<text text-anchor="middle" x="398" y="-102.98" font-family="Courier,monospace" font-size="14.00" fill="white">Eth 0/0</text>
</g>
</g>
</svg>
