<?xml version="1.0" encoding="UTF-8" standalone="no"?>
<!DOCTYPE svg PUBLIC "-//W3C//DTD SVG 1.1//EN"
 "http://www.w3.org/Graphics/SVG/1.1/DTD/svg11.dtd">
<!-- Generated by graphviz version 5.0.0 (20220707.1540)
 -->
<!-- Pages: 1 -->
<svg width="636pt" height="355pt"
 viewBox="0.00 0.00 635.59 355.00" xmlns="http://www.w3.org/2000/svg" xmlns:xlink="http://www.w3.org/1999/xlink">
<g id="graph0" class="graph" transform="scale(1 1) rotate(0) translate(4 351)">
<polygon fill="#333333" stroke="transparent" points="-4,4 -4,-351 631.59,-351 631.59,4 -4,4"/>
<text text-anchor="middle" x="313.79" y="-9.2" font-family="Times New Roman,serif" font-size="16.00" fill="white">Network Map</text>
<!-- R1 -->
<g id="node1" class="node">
<title>R1</title>
<polygon fill="#006699" stroke="#006699" points="87.09,-223 10.09,-223 10.09,-150 87.09,-150 87.09,-223"/>
<text text-anchor="middle" x="48.59" y="-182.8" font-family="Helvetica,sans-Serif" font-size="14.00" fill="white">R1</text>
</g>
<!-- R6 -->
<g id="node2" class="node">
<title>R6</title>
<polygon fill="#006699" stroke="#006699" points="210.09,-223 133.09,-223 133.09,-150 210.09,-150 210.09,-223"/>
<text text-anchor="middle" x="171.59" y="-182.8" font-family="Helvetica,sans-Serif" font-size="14.00" fill="white">R6</text>
</g>
<!-- SW1 -->
<g id="node3" class="node">
<title>SW1</title>
<polygon fill="#006699" stroke="#006699" points="278.09,-99 187.09,-99 187.09,-26 278.09,-26 278.09,-99"/>
<text text-anchor="middle" x="232.59" y="-58.8" font-family="Helvetica,sans-Serif" font-size="14.00" fill="white">SW1</text>
</g>
<!-- SW1&#45;&#45;R1 -->
<g id="edge1" class="edge">
<title>SW1&#45;&#45;R1</title>
<path fill="none" stroke="green" stroke-dasharray="5,2" d="M186.82,-65.99C148.77,-70.54 95.96,-83.05 64.59,-117 56.38,-125.88 52.13,-138.14 50,-149.83"/>
<text text-anchor="middle" x="114.59" y="-120.8" font-family="Courier,monospace" font-size="14.00" fill="white"> &#160;&#160;&#160;&#160;&#160;&#160;&#160;&#160;&#160;&#160;&#160;</text>
<text text-anchor="middle" x="25" y="-138.63" font-family="Courier,monospace" font-size="14.00" fill="white">Eth0/0</text>
<text text-anchor="middle" x="161.82" y="-54.79" font-family="Courier,monospace" font-size="14.00" fill="white">Eth0/1</text>
</g>
<!-- SW1&#45;&#45;R6 -->
<g id="edge4" class="edge">
<title>SW1&#45;&#45;R6</title>
<path fill="none" stroke="green" stroke-dasharray="5,2" d="M187.05,-96.17C181.21,-102.4 176.07,-109.38 172.59,-117 167.99,-127.06 166.6,-138.85 166.7,-149.79"/>
<text text-anchor="middle" x="222.59" y="-120.8" font-family="Courier,monospace" font-size="14.00" fill="white"> &#160;&#160;&#160;&#160;&#160;&#160;&#160;&#160;&#160;&#160;&#160;</text>
<text text-anchor="middle" x="141.7" y="-138.59" font-family="Courier,monospace" font-size="14.00" fill="white">Eth0/1</text>
<text text-anchor="middle" x="162.05" y="-84.97" font-family="Courier,monospace" font-size="14.00" fill="white">Eth0/5</text>
</g>
<!-- R2 -->
<g id="node4" class="node">
<title>R2</title>
<polygon fill="#006699" stroke="#006699" points="333.09,-223 256.09,-223 256.09,-150 333.09,-150 333.09,-223"/>
<text text-anchor="middle" x="294.59" y="-182.8" font-family="Helvetica,sans-Serif" font-size="14.00" fill="white">R2</text>
</g>
<!-- SW1&#45;&#45;R2 -->
<g id="edge2" class="edge">
<title>SW1&#45;&#45;R2</title>
<path fill="none" stroke="green" stroke-dasharray="5,2" d="M261.82,-99.28C265.76,-105.01 269.5,-111.02 272.59,-117 277.86,-127.21 282.18,-138.93 285.56,-149.75"/>
<text text-anchor="middle" x="329.59" y="-120.8" font-family="Courier,monospace" font-size="14.00" fill="white"> &#160;&#160;&#160;&#160;&#160;&#160;&#160;&#160;&#160;&#160;&#160;</text>
<text text-anchor="middle" x="260.56" y="-138.55" font-family="Courier,monospace" font-size="14.00" fill="white">Eth0/0</text>
<text text-anchor="middle" x="236.82" y="-103.08" font-family="Courier,monospace" font-size="14.00" fill="white">Eth0/2</text>
</g>
<!-- R3 -->
<g id="node8" class="node">
<title>R3</title>
<polygon fill="#006699" stroke="#006699" points="456.09,-223 379.09,-223 379.09,-150 456.09,-150 456.09,-223"/>
<text text-anchor="middle" x="417.59" y="-182.8" font-family="Helvetica,sans-Serif" font-size="14.00" fill="white">R3</text>
</g>
<!-- SW1&#45;&#45;R3 -->
<g id="edge3" class="edge">
<title>SW1&#45;&#45;R3</title>
<path fill="none" stroke="green" stroke-dasharray="5,2" d="M278.17,-70.29C310.81,-77.21 354.03,-90.8 383.59,-117 393.42,-125.72 400.74,-137.94 406.01,-149.65"/>
<text text-anchor="middle" x="445.59" y="-120.8" font-family="Courier,monospace" font-size="14.00" fill="white"> &#160;&#160;&#160;&#160;&#160;&#160;&#160;&#160;&#160;&#160;&#160;</text>
<text text-anchor="middle" x="381.01" y="-138.45" font-family="Courier,monospace" font-size="14.00" fill="white">Eth0/0</text>
<text text-anchor="middle" x="303.17" y="-59.09" font-family="Courier,monospace" font-size="14.00" fill="white">Eth0/3</text>
</g>
<!-- SW2 -->
<g id="node6" class="node">
<title>SW2</title>
<polygon fill="#006699" stroke="#006699" points="340.09,-347 249.09,-347 249.09,-274 340.09,-274 340.09,-347"/>
<text text-anchor="middle" x="294.59" y="-306.8" font-family="Helvetica,sans-Serif" font-size="14.00" fill="white">SW2</text>
</g>
<!-- R2&#45;&#45;SW2 -->
<g id="edge5" class="edge">
<title>R2&#45;&#45;SW2</title>
<path fill="none" stroke="green" stroke-dasharray="5,2" d="M294.59,-223.12C294.59,-239.01 294.59,-257.7 294.59,-273.63"/>
<text text-anchor="middle" x="344.59" y="-244.8" font-family="Courier,monospace" font-size="14.00" fill="white"> &#160;&#160;&#160;&#160;&#160;&#160;&#160;&#160;&#160;&#160;&#160;</text>
<text text-anchor="middle" x="265.59" y="-262.43" font-family="Courier,monospace" font-size="14.00" fill="white">Eth0/11</text>
<text text-anchor="middle" x="269.59" y="-226.92" font-family="Courier,monospace" font-size="14.00" fill="white">Eth0/1</text>
</g>
<!-- R5 -->
<g id="node5" class="node">
<title>R5</title>
<polygon fill="#006699" stroke="#006699" points="456.09,-347 379.09,-347 379.09,-274 456.09,-274 456.09,-347"/>
<text text-anchor="middle" x="417.59" y="-306.8" font-family="Helvetica,sans-Serif" font-size="14.00" fill="white">R5</text>
</g>
<!-- R4 -->
<g id="node7" class="node">
<title>R4</title>
<polygon fill="#006699" stroke="#006699" points="579.09,-347 502.09,-347 502.09,-274 579.09,-274 579.09,-347"/>
<text text-anchor="middle" x="540.59" y="-306.8" font-family="Helvetica,sans-Serif" font-size="14.00" fill="white">R4</text>
</g>
<!-- R3&#45;&#45;R5 -->
<g id="edge7" class="edge">
<title>R3&#45;&#45;R5</title>
<path fill="none" stroke="green" stroke-dasharray="5,2" d="M417.59,-223.12C417.59,-239.01 417.59,-257.7 417.59,-273.63"/>
<text text-anchor="middle" x="467.59" y="-244.8" font-family="Courier,monospace" font-size="14.00" fill="white"> &#160;&#160;&#160;&#160;&#160;&#160;&#160;&#160;&#160;&#160;&#160;</text>
<text text-anchor="middle" x="392.59" y="-262.43" font-family="Courier,monospace" font-size="14.00" fill="white">Eth0/0</text>
<text text-anchor="middle" x="392.59" y="-226.92" font-family="Courier,monospace" font-size="14.00" fill="white">Eth0/2</text>
</g>
<!-- R3&#45;&#45;R4 -->
<g id="edge6" class="edge">
<title>R3&#45;&#45;R4</title>
<path fill="none" stroke="green" stroke-dasharray="5,2" d="M456.35,-199.85C477.42,-208.36 502.41,-221.68 518.59,-241 526.37,-250.29 531.41,-262.37 534.67,-273.8"/>
<text text-anchor="middle" x="577.59" y="-244.8" font-family="Courier,monospace" font-size="14.00" fill="white"> &#160;&#160;&#160;&#160;&#160;&#160;&#160;&#160;&#160;&#160;&#160;</text>
<text text-anchor="middle" x="509.67" y="-262.6" font-family="Courier,monospace" font-size="14.00" fill="white">Eth0/0</text>
<text text-anchor="middle" x="481.35" y="-188.65" font-family="Courier,monospace" font-size="14.00" fill="white">Eth0/1</text>
</g>
</g>
</svg>
