/* XPM */
static char *square_eye[] = {
/* columns rows colors chars-per-pixel */
"240 60 3 1",
"  c #0000FF",
"! c #FF0000",
"# c #FFFFFF",
/* pixels */
"!!!!!!!!!!!!!!!!!!!!!!!!!!!!!!!!!!!!!!!!!!!!!!!!!!!!!!!!!!!!!!!!!!!!!!!!!!!!!!!!!!!!!!!!!!!!!!!!!!!!!!!!!!!!!!!!!!!!!!!!!!!!!!!!!!!!!!!!!!!!!!!!!!!!!!!!!!!!!!!!!!!!!!!!!!!!!!!!!!!!!!!!!!!!!!!!!!!!!!!!!!!!!!!!!!!!!!!!!!!!!!!!!!!!!!!!!!!!!!!!",
"!!!!!!!!!!!!!!!!!!!!!!!!!!!!!!!!!!!!!!!!!!!!!!!!!!!!!!!!!!!!!!!!!!!!!!!!!!!!!!!!!!!!!!!!!!!!!!!!!!!!!!!!!!!!!!!!!!!!!!!!!!!!!!!!!!!!!!!!!!!!!!!!!!!!!!!!!!!!!!!!!!!!!!!!!!!!!!!!!!!!!!!!!!!!!!!!!!!!!!!!!!!!!!!!!!!!!!!!!!!!!!!!!!!!!!!!!!!!!!!!",
"!!!!!!!!!!!!!!!!!!!!!!!!!!!!!!!!!!!!!!!!!!!!!!!!!!!!!!!!!!!!!!!!!!!!!!!!!!!!!!!!!!!!!!!!!!!!!!!!!!!!!!!!!!!!!!!!!!!!!!!!!!!!!!!!!!!!!!!!!!!!!!!!!!!!!!!!!!!!!!!!!!!!!!!!!!!!!!!!!!!!!!!!!!!!!!!!!!!!!!!!!!!!!!!!!!!!!!!!!!!!!!!!!!!!!!!!!!!!!!!!",
"!!!!!!!!!!!!!!!!!!!!!!!!!!!!!!!!!!!!!!!!!!!!!!!!!!!!!!!!!!!!!!!!!!!!!!!!!!!!!!!!!!!!!!!!!!!!!!!!!!!!!!!!!!!!!!!!!!!!!!!!!!!!!!!!!!!!!!!!!!!!!!!!!!!!!!!!!!!!!!!!!!!!!!!!!!!!!!!!!!!!!!!!!!!!!!!!!!!!!!!!!!!!!!!!!!!!!!!!!!!!!!!!!!!!!!!!!!!!!!!!",
"!!!!!!!!!!!!!!!!!!!!!!!!!!!!!!!!!!!!!!!!!!!!!!!!!!!!!!!!!!!!!!!!!!!!!!!!!!!!!!!!!!!!!!!!!!!!!!!!!!!!!!!!!!!!!!!!!!!!!!!!!!!!!!!!!!!!!!!!!!!!!!!!!!!!!!!!!!!!!!!!!!!!!!!!!!!!!!!!!!!!!!!!!!!!!!!!!!!!!!!!!!!!!!!!!!!!!!!!!!!!!!!!!!!!!!!!!!!!!!!!",
"!!!!!######################################################################################################################################################################################################################################!!!!!",
"!!!!!######################################################################################################################################################################################################################################!!!!!",
"!!!!!######################################################################################################################################################################################################################################!!!!!",
"!!!!!######################################################################################################################################################################################################################################!!!!!",
"!!!!!######################################################################################################################################################################################################################################!!!!!",
"!!!!!######################################################################################################################################################################################################################################!!!!!",
"!!!!!################################################################################################                                       ###############################################################################################!!!!!",
"!!!!!################################################################################################                                       ###############################################################################################!!!!!",
"!!!!!################################################################################################                                       ###############################################################################################!!!!!",
"!!!!!################################################################################################                                       ###############################################################################################!!!!!",
"!!!!!################################################################################################                                       ###############################################################################################!!!!!",
"!!!!!################################################################################################                                       ###############################################################################################!!!!!",
"!!!!!################################################################################################                                       ###############################################################################################!!!!!",
"!!!!!################################################################################################                                       ###############################################################################################!!!!!",
"!!!!!################################################################################################                                       ###############################################################################################!!!!!",
"!!!!!################################################################################################                                       ###############################################################################################!!!!!",
"!!!!!################################################################################################                                       ###############################################################################################!!!!!",
"!!!!!################################################################################################                                       ###############################################################################################!!!!!",
"!!!!!################################################################################################                                       ###############################################################################################!!!!!",
"!!!!!################################################################################################                                       ###############################################################################################!!!!!",
"!!!!!################################################################################################                                       ###############################################################################################!!!!!",
"!!!!!################################################################################################                                       ###############################################################################################!!!!!",
"!!!!!################################################################################################                                       ###############################################################################################!!!!!",
"!!!!!################################################################################################                                       ###############################################################################################!!!!!",
"!!!!!################################################################################################                                       ###############################################################################################!!!!!",
"!!!!!################################################################################################                                       ###############################################################################################!!!!!",
"!!!!!################################################################################################                                       ###############################################################################################!!!!!",
"!!!!!################################################################################################                                       ###############################################################################################!!!!!",
"!!!!!################################################################################################                                       ###############################################################################################!!!!!",
"!!!!!################################################################################################                                       ###############################################################################################!!!!!",
"!!!!!################################################################################################                                       ###############################################################################################!!!!!",
"!!!!!################################################################################################                                       ###############################################################################################!!!!!",
"!!!!!################################################################################################                                       ###############################################################################################!!!!!",
"!!!!!################################################################################################                                       ###############################################################################################!!!!!",
"!!!!!################################################################################################                                       ###############################################################################################!!!!!",
"!!!!!################################################################################################                                       ###############################################################################################!!!!!",
"!!!!!################################################################################################                                       ###############################################################################################!!!!!",
"!!!!!################################################################################################                                       ###############################################################################################!!!!!",
"!!!!!################################################################################################                                       ###############################################################################################!!!!!",
"!!!!!################################################################################################                                       ###############################################################################################!!!!!",
"!!!!!################################################################################################                                       ###############################################################################################!!!!!",
"!!!!!################################################################################################                                       ###############################################################################################!!!!!",
"!!!!!################################################################################################                                       ###############################################################################################!!!!!",
"!!!!!################################################################################################                                       ###############################################################################################!!!!!",
"!!!!!################################################################################################                                       ###############################################################################################!!!!!",
"!!!!!######################################################################################################################################################################################################################################!!!!!",
"!!!!!######################################################################################################################################################################################################################################!!!!!",
"!!!!!######################################################################################################################################################################################################################################!!!!!",
"!!!!!######################################################################################################################################################################################################################################!!!!!",
"!!!!!######################################################################################################################################################################################################################################!!!!!",
"!!!!!!!!!!!!!!!!!!!!!!!!!!!!!!!!!!!!!!!!!!!!!!!!!!!!!!!!!!!!!!!!!!!!!!!!!!!!!!!!!!!!!!!!!!!!!!!!!!!!!!!!!!!!!!!!!!!!!!!!!!!!!!!!!!!!!!!!!!!!!!!!!!!!!!!!!!!!!!!!!!!!!!!!!!!!!!!!!!!!!!!!!!!!!!!!!!!!!!!!!!!!!!!!!!!!!!!!!!!!!!!!!!!!!!!!!!!!!!!!",
"!!!!!!!!!!!!!!!!!!!!!!!!!!!!!!!!!!!!!!!!!!!!!!!!!!!!!!!!!!!!!!!!!!!!!!!!!!!!!!!!!!!!!!!!!!!!!!!!!!!!!!!!!!!!!!!!!!!!!!!!!!!!!!!!!!!!!!!!!!!!!!!!!!!!!!!!!!!!!!!!!!!!!!!!!!!!!!!!!!!!!!!!!!!!!!!!!!!!!!!!!!!!!!!!!!!!!!!!!!!!!!!!!!!!!!!!!!!!!!!!",
"!!!!!!!!!!!!!!!!!!!!!!!!!!!!!!!!!!!!!!!!!!!!!!!!!!!!!!!!!!!!!!!!!!!!!!!!!!!!!!!!!!!!!!!!!!!!!!!!!!!!!!!!!!!!!!!!!!!!!!!!!!!!!!!!!!!!!!!!!!!!!!!!!!!!!!!!!!!!!!!!!!!!!!!!!!!!!!!!!!!!!!!!!!!!!!!!!!!!!!!!!!!!!!!!!!!!!!!!!!!!!!!!!!!!!!!!!!!!!!!!",
"!!!!!!!!!!!!!!!!!!!!!!!!!!!!!!!!!!!!!!!!!!!!!!!!!!!!!!!!!!!!!!!!!!!!!!!!!!!!!!!!!!!!!!!!!!!!!!!!!!!!!!!!!!!!!!!!!!!!!!!!!!!!!!!!!!!!!!!!!!!!!!!!!!!!!!!!!!!!!!!!!!!!!!!!!!!!!!!!!!!!!!!!!!!!!!!!!!!!!!!!!!!!!!!!!!!!!!!!!!!!!!!!!!!!!!!!!!!!!!!!",
"!!!!!!!!!!!!!!!!!!!!!!!!!!!!!!!!!!!!!!!!!!!!!!!!!!!!!!!!!!!!!!!!!!!!!!!!!!!!!!!!!!!!!!!!!!!!!!!!!!!!!!!!!!!!!!!!!!!!!!!!!!!!!!!!!!!!!!!!!!!!!!!!!!!!!!!!!!!!!!!!!!!!!!!!!!!!!!!!!!!!!!!!!!!!!!!!!!!!!!!!!!!!!!!!!!!!!!!!!!!!!!!!!!!!!!!!!!!!!!!!",
};
